<?xml version="1.0" encoding="utf-8"?>
<!-- Generator: Adobe Illustrator 17.0.0, SVG Export Plug-In . SVG Version: 6.00 Build 0)  -->
<!DOCTYPE svg PUBLIC "-//W3C//DTD SVG 1.1//EN" "http://www.w3.org/Graphics/SVG/1.1/DTD/svg11.dtd">
<svg version="1.1" id="Layer_1" xmlns="http://www.w3.org/2000/svg" xmlns:xlink="http://www.w3.org/1999/xlink" x="0px" y="0px"
	 width="256px" height="50px" viewBox="0 0 256 50" enable-background="new 0 0 256 50" xml:space="preserve">
<g>
	<path fill="#F16625" d="M76.22,15.292c-1.369-1.515-3-2.684-4.894-3.505c-1.895-0.821-3.958-1.231-6.189-1.231
		c-2.232,0-4.295,0.41-6.189,1.231c-1.895,0.821-3.527,1.99-4.895,3.505c-1.369,1.516-2.431,3.337-3.189,5.463
		c-0.758,2.126-1.137,4.474-1.137,7.042c0,2.611,0.379,4.969,1.137,7.073c0.758,2.106,1.821,3.915,3.189,5.431
		c1.368,1.516,3,2.684,4.895,3.505c1.895,0.821,3.957,1.231,6.189,1.231c2.231,0,4.294-0.41,6.189-1.231
		c1.895-0.821,3.526-1.989,4.894-3.505c1.368-1.516,2.432-3.325,3.189-5.431c0.758-2.105,1.137-4.462,1.137-7.073
		c0-2.568-0.379-4.915-1.137-7.042C78.651,18.63,77.587,16.808,76.22,15.292z M71.925,36.607c-1.664,2.169-3.926,3.253-6.789,3.253
		c-2.864,0-5.126-1.083-6.789-3.253c-1.664-2.168-2.495-5.105-2.495-8.81c0-3.705,0.831-6.641,2.495-8.81
		c1.663-2.168,3.925-3.253,6.789-3.253c2.863,0,5.125,1.085,6.789,3.253c1.663,2.169,2.495,5.106,2.495,8.81
		C74.42,31.502,73.588,34.439,71.925,36.607z"/>
	<path fill="#F16625" d="M44.531,14.977c-0.906-1.347-2.158-2.389-3.758-3.126c-1.6-0.736-3.663-1.105-6.189-1.105
		c-1.306,0-2.526,0.137-3.663,0.41c-1.137,0.274-2.169,0.59-3.095,0.947c-0.927,0.358-1.705,0.726-2.337,1.105
		c-0.631,0.379-1.095,0.674-1.389,0.884c-0.969-1.094-2.169-1.926-3.6-2.494c-1.432-0.568-3.2-0.853-5.305-0.853
		c-2.905,0-5.463,0.189-7.673,0.568c-1.18,0.202-2.233,0.398-3.166,0.589L4.35,11.898l-0.264,0.06
		c-0.706,0.147-1.342,0.29-1.899,0.429v0.003L0,12.888l0.314,4.705l1.873-0.286V44.28H8.06V16.556
		c0.168-0.041,0.505-0.105,1.01-0.189c0.505-0.084,1.063-0.158,1.674-0.221c0.61-0.063,1.252-0.115,1.926-0.158
		c0.673-0.041,1.305-0.063,1.895-0.063c1.389,0,2.536,0.221,3.442,0.663c0.905,0.442,1.62,1.127,2.147,2.052
		c0.526,0.927,0.894,2.084,1.105,3.474c0.21,1.389,0.316,3.053,0.316,4.989V44.28h5.873V25.839c0-1.431-0.085-2.8-0.253-4.105
		c-0.169-1.304-0.421-2.504-0.758-3.6c0.463-0.42,1.336-0.894,2.621-1.421c1.284-0.526,2.915-0.789,4.894-0.789
		c1.431,0,2.599,0.221,3.505,0.663c0.905,0.442,1.62,1.127,2.147,2.052c0.526,0.927,0.884,2.084,1.074,3.474
		c0.189,1.389,0.284,3.053,0.284,4.989V44.28h5.873V25.839c0-2.189-0.158-4.21-0.474-6.063
		C46.047,17.924,45.436,16.325,44.531,14.977z"/>
	<path fill="#F16625" d="M141.98,10.619c-1.894,0-3.748,0.358-5.558,1.073c-1.811,0.716-3.41,1.79-4.8,3.221
		c-1.389,1.432-2.506,3.232-3.347,5.4c-0.843,2.169-1.263,4.705-1.263,7.61c0,2.485,0.326,4.768,0.979,6.852
		c0.652,2.084,1.652,3.884,3,5.4c1.347,1.516,3.063,2.706,5.147,3.568c2.084,0.862,4.557,1.295,7.42,1.295
		c2.274,0,4.305-0.211,6.094-0.631c1.789-0.42,3.041-0.821,3.758-1.2l-0.821-4.926c-0.716,0.337-1.779,0.685-3.189,1.042
		c-1.411,0.358-3.148,0.537-5.21,0.537c-3.663,0-6.358-0.884-8.084-2.653c-1.727-1.768-2.715-4.358-2.968-7.768h22.483
		c0.041-0.336,0.063-0.705,0.063-1.105c0-0.4,0-0.726,0-0.979c0-5.641-1.179-9.841-3.537-12.599
		C149.789,11.999,146.401,10.619,141.98,10.619z M133.264,24.703c0.126-1.137,0.389-2.252,0.789-3.347
		c0.4-1.094,0.957-2.062,1.673-2.905c0.715-0.842,1.589-1.525,2.621-2.052c1.031-0.526,2.22-0.789,3.568-0.789
		c2.4,0,4.284,0.852,5.652,2.558c1.368,1.705,2.031,3.884,1.99,6.536H133.264z"/>
	<path fill="#F16625" d="M226.285,14.96c-1.055-1.348-2.447-2.393-4.175-3.128c-1.727-0.738-3.856-1.107-6.386-1.107
		c-2.908,0-5.467,0.195-7.682,0.567c-3.429,0.577-7.532,1.574-7.532,1.574l0.315,4.662l1.877-0.288v27.06h5.881V16.542
		c0.209-0.085,0.56-0.159,1.041-0.221c0.484-0.064,1.024-0.127,1.615-0.19c0.589-0.064,1.222-0.117,1.897-0.158
		c0.675-0.044,1.329-0.063,1.959-0.063c2.993,0,5.124,0.863,6.388,2.591c1.261,1.729,1.893,4.594,1.893,8.601v17.198h5.879V25.836
		c0-2.235-0.229-4.268-0.695-6.102C228.095,17.9,227.339,16.309,226.285,14.96z"/>
	<path fill="#F16625" d="M166.922,43.589c-0.379-0.379-0.654-0.885-0.822-1.517c-0.17-0.634-0.252-1.432-0.252-2.403V0.151
		l-8.487,1.453l0.41,4.954l2.196-0.388v34.447c0,3.121,0.759,5.418,2.277,6.892c1.518,1.477,4.088,2.255,7.713,2.34l0.82-4.932
		c-0.924-0.126-1.706-0.284-2.34-0.474C167.81,44.254,167.304,43.969,166.922,43.589z"/>
	<path fill="#F16625" d="M184.822,10.598c-1.895,0-3.754,0.358-5.565,1.074c-1.813,0.717-3.413,1.793-4.804,3.224
		c-1.391,1.435-2.511,3.238-3.354,5.407c-0.843,2.172-1.263,4.712-1.263,7.62c0,2.489,0.326,4.773,0.978,6.86
		c0.655,2.088,1.655,3.89,3.005,5.407c1.35,1.516,3.066,2.708,5.153,3.572c2.086,0.864,4.562,1.295,7.427,1.295
		c2.28,0,4.31-0.211,6.103-0.631c1.793-0.422,3.044-0.822,3.762-1.2l-0.822-4.933c-0.716,0.338-1.782,0.685-3.192,1.043
		c-1.413,0.359-3.151,0.538-5.216,0.538c-3.67,0-6.367-0.884-8.095-2.656c-1.727-1.77-2.717-4.362-2.969-7.778h22.51
		c0.041-0.336,0.061-0.705,0.061-1.107c0-0.398,0-0.726,0-0.979c0-5.647-1.182-9.852-3.541-12.613
		C192.641,11.979,189.246,10.598,184.822,10.598z M176.096,24.697c0.127-1.138,0.388-2.254,0.789-3.35
		c0.4-1.097,0.958-2.064,1.676-2.91c0.716-0.842,1.59-1.525,2.624-2.054c1.034-0.527,2.223-0.79,3.571-0.79
		c2.405,0,4.292,0.854,5.66,2.561c1.368,1.706,2.033,3.888,1.994,6.544H176.096z"/>
	<path fill="#F16625" d="M255.305,31.874c-0.466-1.074-1.128-1.991-1.992-2.75c-0.863-0.759-1.908-1.425-3.13-1.992
		c-1.225-0.569-2.615-1.148-4.172-1.738c-1.179-0.421-2.193-0.823-3.034-1.203c-0.846-0.379-1.549-0.791-2.119-1.232
		c-0.57-0.444-0.991-0.939-1.264-1.487c-0.275-0.547-0.412-1.18-0.412-1.896c0-1.391,0.611-2.414,1.834-3.067
		c1.218-0.654,2.657-0.98,4.3-0.98c1.116,0,2.135,0.064,3.064,0.189l-0.349,1.969l4.914,0.443l1.283-6.079
		c-0.336-0.127-0.812-0.273-1.419-0.443c-0.611-0.167-1.32-0.325-2.121-0.473c-0.8-0.147-1.665-0.274-2.595-0.38
		c-0.925-0.105-1.852-0.158-2.777-0.158c-3.711,0-6.64,0.854-8.79,2.562c-2.15,1.706-3.224,4.013-3.224,6.922
		c0,1.476,0.252,2.718,0.759,3.732c0.502,1.011,1.18,1.875,2.019,2.592c0.846,0.716,1.846,1.339,3.008,1.865
		c1.158,0.526,2.373,1.042,3.634,1.549c2.613,1.053,4.49,2.002,5.627,2.843c1.143,0.845,1.706,1.983,1.706,3.416
		c0,1.391-0.578,2.402-1.735,3.034c-1.159,0.633-2.942,0.948-5.343,0.948c-1.737,0-3.22-0.128-4.468-0.384l0.382-2.152l-4.829-0.411
		l-1.268,6.109c0.589,0.253,1.709,0.622,3.352,1.107c1.645,0.484,3.922,0.724,6.831,0.724c4.169,0,7.386-0.779,9.641-2.34
		c2.254-1.558,3.382-3.856,3.382-6.89C256,34.266,255.77,32.949,255.305,31.874z"/>
	<path fill="#F16625" d="M104.776,11.089c-0.505,2.063-1.105,4.614-1.8,6.95c-0.695,2.337-1.432,4.653-2.21,6.947
		c-0.779,2.295-1.569,4.516-2.368,6.663c-0.8,2.147-1.558,4.064-2.274,5.747c-0.716-1.683-1.474-3.6-2.274-5.747
		c-0.8-2.147-1.59-4.368-2.368-6.663c-0.78-2.294-1.516-4.61-2.211-6.947c-0.695-2.337-1.295-4.887-1.8-6.95l-8.215,0.351
		l0.744,4.447h2.407c1.347,4.557,2.855,8.969,4.527,13.236c2.21,5.643,4.347,10.695,6.41,15.157h5.305
		c2.062-4.462,4.2-9.515,6.41-15.157c1.672-4.267,3.181-8.68,4.527-13.236h2.151l0.744-4.447L104.776,11.089z"/>
	<g>
		<path fill="#F16625" d="M119.561,7.856c1.052,0,1.947-0.347,2.684-1.042c0.736-0.695,1.105-1.631,1.105-2.81
			c0-1.178-0.369-2.115-1.105-2.81c-0.737-0.695-1.632-1.042-2.684-1.042c-1.053,0-1.948,0.347-2.684,1.042
			c-0.737,0.695-1.105,1.632-1.105,2.81c0,1.179,0.368,2.116,1.105,2.81C117.613,7.508,118.508,7.856,119.561,7.856z"/>
		<polygon fill="#F16625" points="125.098,39.954 122.979,39.743 122.979,10.831 114.491,11.44 114.667,15.766 117.098,16.006 
			117.098,39.743 114.978,39.954 114.803,44.28 117.098,44.28 117.098,44.28 122.979,44.28 122.979,44.28 125.274,44.28 		"/>
	</g>
</g>
</svg>
